<svg width="17" height="16" viewBox="0 0 17 16" fill="none" xmlns="http://www.w3.org/2000/svg">
<path fill-rule="evenodd" clip-rule="evenodd" d="M8.5019 15.1464L8.5043 15.1472C8.6619 15.216 8.7499 15.2 8.7499 15.2C8.7499 15.2 8.8379 15.216 8.9963 15.1472L8.9979 15.1464L9.0027 15.144L9.0171 15.1376C9.09304 15.1023 9.168 15.065 9.2419 15.0256C9.3907 14.9488 9.5987 14.8336 9.8475 14.6792C10.3435 14.372 11.0035 13.9064 11.6667 13.2672C12.9915 11.9904 14.3499 9.99438 14.3499 7.19998C14.3499 6.46457 14.2051 5.73637 13.9236 5.05695C13.6422 4.37753 13.2297 3.76019 12.7097 3.24018C12.1897 2.72017 11.5724 2.30768 10.8929 2.02625C10.2135 1.74482 9.4853 1.59998 8.7499 1.59998C8.0145 1.59998 7.2863 1.74482 6.60688 2.02625C5.92745 2.30768 5.31011 2.72017 4.7901 3.24018C4.2701 3.76019 3.8576 4.37753 3.57618 5.05695C3.29475 5.73637 3.1499 6.46457 3.1499 7.19998C3.1499 9.99358 4.5083 11.9904 5.8339 13.2672C6.3889 13.8002 6.99838 14.2735 7.6523 14.6792C7.90558 14.8364 8.16613 14.9817 8.4331 15.1144L8.4827 15.1376L8.4971 15.144L8.5019 15.1464ZM8.7499 8.99998C9.22729 8.99998 9.68513 8.81033 10.0227 8.47277C10.3603 8.1352 10.5499 7.67737 10.5499 7.19998C10.5499 6.72259 10.3603 6.26475 10.0227 5.92718C9.68513 5.58962 9.22729 5.39998 8.7499 5.39998C8.27251 5.39998 7.81468 5.58962 7.47711 5.92718C7.13954 6.26475 6.9499 6.72259 6.9499 7.19998C6.9499 7.67737 7.13954 8.1352 7.47711 8.47277C7.81468 8.81033 8.27251 8.99998 8.7499 8.99998Z" fill="#5A6E85"/>
</svg>
