<svg width="18" height="18" viewBox="0 0 18 18" fill="none" xmlns="http://www.w3.org/2000/svg">
<path fill-rule="evenodd" clip-rule="evenodd" d="M8.04031 14.7599C4.32896 14.7599 1.32031 11.7513 1.32031 8.03994C1.32031 4.32859 4.32896 1.31995 8.04031 1.31995C11.7517 1.31995 14.7603 4.32859 14.7603 8.03994C14.7603 9.66523 14.1833 11.1558 13.223 12.3179L16.5379 15.6328C16.7878 15.8828 16.7878 16.288 16.5379 16.5379C16.288 16.7879 15.8828 16.7879 15.6328 16.5379L12.3178 13.223C11.1558 14.1831 9.66544 14.7599 8.04031 14.7599ZM13.48 8.04002C13.48 11.0444 11.0444 13.48 8.04 13.48C5.03557 13.48 2.6 11.0444 2.6 8.04002C2.6 5.03559 5.03557 2.60002 8.04 2.60002C11.0444 2.60002 13.48 5.03559 13.48 8.04002Z" fill="#5A6E85"/>
</svg>
