<svg width="16" height="16" viewBox="0 0 16 16" fill="none" xmlns="http://www.w3.org/2000/svg">
<g clip-path="url(#clip0_8_3321)">
<path fill-rule="evenodd" clip-rule="evenodd" d="M7.90877 0H11.9402C13.9559 0 15.5999 1.6 15.5999 3.552V12.448C15.5999 14.408 13.9559 16 11.9237 16H7.90051C5.88479 16 4.23257 14.408 4.23257 12.456V8.616H9.35446L8.0327 9.896C7.78485 10.136 7.78485 10.528 8.0327 10.768C8.15662 10.888 8.32182 10.944 8.48702 10.944C8.64398 10.944 8.80926 10.888 8.93318 10.768L11.3454 8.44C11.4693 8.328 11.5354 8.168 11.5354 8C11.5354 7.84 11.4693 7.68 11.3454 7.568L8.93318 5.24C8.68534 5 8.28054 5 8.0327 5.24C7.78485 5.48 7.78485 5.872 8.0327 6.112L9.35446 7.384H4.23257V3.56C4.23257 1.6 5.88479 0 7.90877 0ZM0.399902 7.99992C0.399902 7.66392 0.684086 7.38392 1.0251 7.38392L4.23257 7.384V8.616L1.0251 8.61592C0.684086 8.61592 0.399902 8.34392 0.399902 7.99992Z" fill="#0F3A8C"/>
</g>
<defs>
<clipPath id="clip0_8_3321">
<rect width="16" height="16" fill="white"/>
</clipPath>
</defs>
</svg>
